<svg width="20" height="20" viewBox="0 0 20 20" fill="none" xmlns="http://www.w3.org/2000/svg">
<path d="M16.251 2.50092H15.626V1.8935C15.626 1.55717 15.3674 1.2685 15.0311 1.2517C14.9465 1.24763 14.8621 1.26076 14.7828 1.29029C14.7035 1.31982 14.6311 1.36514 14.5698 1.42351C14.5086 1.48187 14.4598 1.55206 14.4265 1.62983C14.3932 1.70759 14.376 1.79132 14.376 1.87592V2.50092H5.62598V1.8935C5.62598 1.55717 5.36738 1.2685 5.03105 1.2517C4.94655 1.24763 4.8621 1.26076 4.78281 1.29029C4.70353 1.31982 4.63107 1.36514 4.56982 1.42351C4.50857 1.48187 4.45981 1.55206 4.42649 1.62983C4.39317 1.70759 4.37598 1.79132 4.37598 1.87592V2.50092H3.75098C3.08794 2.50092 2.45205 2.76431 1.98321 3.23315C1.51437 3.70199 1.25098 4.33788 1.25098 5.00092V5.46967C1.25098 5.51111 1.26744 5.55085 1.29674 5.58016C1.32604 5.60946 1.36579 5.62592 1.40723 5.62592H18.5947C18.6362 5.62592 18.6759 5.60946 18.7052 5.58016C18.7345 5.55085 18.751 5.51111 18.751 5.46967V5.00092C18.751 4.33788 18.4876 3.70199 18.0187 3.23315C17.5499 2.76431 16.914 2.50092 16.251 2.50092Z" fill="#FCFCFC"/>
<path d="M18.5947 6.87573H1.40723C1.36579 6.87573 1.32604 6.89219 1.29674 6.9215C1.26744 6.9508 1.25098 6.99054 1.25098 7.03198V16.2507C1.25098 16.9138 1.51437 17.5497 1.98321 18.0185C2.45205 18.4873 3.08794 18.7507 3.75098 18.7507H16.251C16.914 18.7507 17.5499 18.4873 18.0187 18.0185C18.4876 17.5497 18.751 16.9138 18.751 16.2507V7.03198C18.751 6.99054 18.7345 6.9508 18.7052 6.9215C18.6759 6.89219 18.6362 6.87573 18.5947 6.87573ZM9.35957 15.6687C8.88418 16.0441 8.23652 16.2507 7.53535 16.2507C6.44668 16.2507 5.6416 15.5414 5.28301 14.9343C5.19857 14.7916 5.17431 14.6211 5.21555 14.4605C5.2568 14.2998 5.36017 14.1621 5.50293 14.0777C5.64569 13.9933 5.81615 13.969 5.9768 14.0102C6.13745 14.0515 6.27514 14.1549 6.35957 14.2976C6.40176 14.3695 6.79512 15.0007 7.53535 15.0007C8.18613 15.0007 8.94629 14.716 8.94629 13.914C8.94629 13.6699 8.89863 13.33 8.67285 13.0984C8.33926 12.757 7.78418 12.6035 7.49668 12.6035C7.33092 12.6035 7.17195 12.5376 7.05474 12.4204C6.93753 12.3032 6.87168 12.1442 6.87168 11.9785C6.87168 11.8127 6.93753 11.6537 7.05474 11.5365C7.17195 11.4193 7.33092 11.3535 7.49668 11.3535C7.68613 11.3535 8.17676 11.2519 8.48418 10.9375C8.56735 10.8557 8.633 10.7578 8.67712 10.6498C8.72124 10.5418 8.74291 10.426 8.74082 10.3093C8.74082 9.40191 7.62246 9.37573 7.49512 9.37573C6.81777 9.37573 6.56543 9.79019 6.55488 9.80777C6.51428 9.88057 6.45952 9.94451 6.39383 9.99583C6.32814 10.0472 6.25285 10.0848 6.17239 10.1066C6.09192 10.1284 6.00792 10.1339 5.92531 10.1227C5.8427 10.1115 5.76316 10.0839 5.69137 10.0416C5.61958 9.9992 5.55699 9.9429 5.50729 9.87598C5.45759 9.80905 5.42178 9.73287 5.40196 9.6519C5.38214 9.57092 5.37873 9.48681 5.39191 9.4045C5.40509 9.32219 5.4346 9.24334 5.47871 9.17261C5.77715 8.6648 6.46387 8.12573 7.49512 8.12573C8.1373 8.12573 8.73574 8.31206 9.17988 8.64995C9.70293 9.04839 9.99082 9.63745 9.99082 10.3093C9.99258 10.5879 9.93916 10.864 9.83363 11.1218C9.7281 11.3796 9.57255 11.6139 9.37598 11.8113C9.33105 11.8574 9.28379 11.9003 9.23574 11.9421C9.35309 12.0269 9.46311 12.1214 9.56465 12.2246C9.97715 12.6464 10.1951 13.2304 10.1951 13.914C10.1963 14.6195 9.89902 15.2425 9.35957 15.6687ZM14.376 15.4695C14.376 15.6352 14.3101 15.7942 14.1929 15.9114C14.0757 16.0286 13.9167 16.0945 13.751 16.0945C13.5852 16.0945 13.4262 16.0286 13.309 15.9114C13.1918 15.7942 13.126 15.6352 13.126 15.4695V10.0121L12.2467 10.6601C12.1806 10.7088 12.1056 10.7441 12.0259 10.7638C11.9462 10.7836 11.8634 10.7874 11.7822 10.7752C11.701 10.7629 11.6231 10.7348 11.5528 10.6924C11.4825 10.65 11.4212 10.5942 11.3725 10.5281C11.3237 10.462 11.2885 10.387 11.2687 10.3073C11.249 10.2276 11.2452 10.1448 11.2574 10.0636C11.2697 9.98245 11.2978 9.90448 11.3402 9.83417C11.3826 9.76386 11.4384 9.70259 11.5045 9.65386L13.2006 8.40386C13.308 8.32471 13.4379 8.282 13.5713 8.28198H13.751C13.9167 8.28198 14.0757 8.34783 14.1929 8.46504C14.3101 8.58225 14.376 8.74122 14.376 8.90698V15.4695Z" fill="#FCFCFC"/>
</svg>
