<svg width="17" height="15" viewBox="0 0 17 15" fill="none" xmlns="http://www.w3.org/2000/svg">
<path d="M3.4987 11.7708H4.47676L11.1859 6.06875L10.2079 5.2375L3.4987 10.9396V11.7708ZM2.81234 12.9375C2.61787 12.9375 2.45486 12.8816 2.32331 12.7698C2.19175 12.658 2.12598 12.5194 2.12598 12.3542V10.9396C2.12598 10.784 2.16029 10.6358 2.22893 10.4948C2.29757 10.3538 2.3948 10.2299 2.52063 10.1229L11.1859 2.77292C11.3232 2.66597 11.4748 2.58333 11.6406 2.525C11.8065 2.46667 11.981 2.4375 12.164 2.4375C12.347 2.4375 12.5243 2.46667 12.6959 2.525C12.8675 2.58333 13.0162 2.67083 13.1421 2.7875L14.0858 3.60417C14.2231 3.71111 14.3232 3.8375 14.3861 3.98333C14.449 4.12917 14.4805 4.275 14.4805 4.42083C14.4805 4.57639 14.449 4.72465 14.3861 4.86562C14.3232 5.0066 14.2231 5.13542 14.0858 5.25208L5.43766 12.6021C5.31183 12.709 5.16598 12.7917 5.00011 12.85C4.83424 12.9083 4.65979 12.9375 4.47676 12.9375H2.81234ZM10.6883 5.66042L10.2079 5.2375L11.1859 6.06875L10.6883 5.66042Z" fill="#6E9FFF"/>
</svg>
