<svg width="200" height="200" viewBox="0 0 200 200" fill="none" xmlns="http://www.w3.org/2000/svg">
<path d="M94.8038 9C97.1132 5 102.887 5 105.196 9L181.406 141C183.716 145 180.829 150 176.21 150H23.7898C19.171 150 16.2842 145 18.5936 141L94.8038 9Z" fill="#333333"/>
<path d="M93.3008 123.134C93.3008 122.056 93.5131 120.989 93.9256 119.993C94.3382 118.997 94.9429 118.092 95.7051 117.329C96.4674 116.567 97.3724 115.963 98.3683 115.55C99.3643 115.137 100.432 114.925 101.51 114.925C102.588 114.925 103.655 115.137 104.651 115.55C105.647 115.963 106.552 116.567 107.314 117.329C108.077 118.092 108.681 118.997 109.094 119.993C109.506 120.989 109.719 122.056 109.719 123.134C109.719 125.311 108.854 127.399 107.314 128.939C105.775 130.478 103.687 131.343 101.51 131.343C99.3326 131.343 97.2446 130.478 95.7051 128.939C94.1657 127.399 93.3008 125.311 93.3008 123.134V123.134ZM94.1053 73.8393C93.9959 72.8037 94.1056 71.7566 94.4271 70.7661C94.7485 69.7756 95.2747 68.8637 95.9713 68.0897C96.668 67.3156 97.5196 66.6967 98.4709 66.273C99.4222 65.8493 100.452 65.6304 101.493 65.6304C102.535 65.6304 103.564 65.8493 104.516 66.273C105.467 66.6967 106.319 67.3156 107.015 68.0897C107.712 68.8637 108.238 69.7756 108.56 70.7661C108.881 71.7566 108.991 72.8037 108.881 73.8393L106.008 102.628C105.892 103.744 105.366 104.778 104.532 105.529C103.698 106.28 102.616 106.695 101.493 106.695C100.371 106.695 99.2887 106.28 98.4549 105.529C97.6211 104.778 97.0951 103.744 96.9784 102.628L94.1053 73.8393Z" fill="white"/>
</svg>
