<svg width="16" height="16" viewBox="0 0 16 16" fill="none" xmlns="http://www.w3.org/2000/svg">
<path d="M14.7531 5.25H1.25016C1.05121 5.25 0.860401 5.17098 0.719718 5.03033C0.579035 4.88968 0.5 4.69891 0.5 4.5C0.5 4.30109 0.579035 4.11032 0.719718 3.96967C0.860401 3.82902 1.05121 3.75 1.25016 3.75H14.7531C14.9521 3.75 15.1429 3.82902 15.2835 3.96967C15.4242 4.11032 15.5033 4.30109 15.5033 4.5C15.5033 4.69891 15.4242 4.88968 15.2835 5.03033C15.1429 5.17098 14.9521 5.25 14.7531 5.25Z" fill="black"/>
<path d="M12.253 8.75H3.75114C3.55218 8.75 3.36138 8.67098 3.22069 8.53033C3.08001 8.38968 3.00098 8.19891 3.00098 8C3.00098 7.80109 3.08001 7.61032 3.22069 7.46967C3.36138 7.32902 3.55218 7.25 3.75114 7.25H12.253C12.4519 7.25 12.6428 7.32902 12.7834 7.46967C12.9241 7.61032 13.0032 7.80109 13.0032 8C13.0032 8.19891 12.9241 8.38968 12.7834 8.53033C12.6428 8.67098 12.4519 8.75 12.253 8.75Z" fill="black"/>
<path d="M9.25215 12.2502H6.75125C6.55226 12.2502 6.36143 12.1712 6.22073 12.0305C6.08002 11.8898 6.00098 11.699 6.00098 11.5001C6.00098 11.3012 6.08002 11.1104 6.22073 10.9697C6.36143 10.829 6.55226 10.75 6.75125 10.75H9.25215C9.45113 10.75 9.64197 10.829 9.78267 10.9697C9.92337 11.1104 10.0024 11.3012 10.0024 11.5001C10.0024 11.699 9.92337 11.8898 9.78267 12.0305C9.64197 12.1712 9.45113 12.2502 9.25215 12.2502Z" fill="black"/>
</svg>
