<svg width="30" height="31" viewBox="0 0 30 31" fill="none" xmlns="http://www.w3.org/2000/svg">
<path d="M25.7868 20.2408C25.6895 20.1236 25.594 20.0065 25.5003 19.8934C24.2112 18.3342 23.4313 17.3932 23.4313 12.9793C23.4313 10.6941 22.8846 8.81914 21.8071 7.41289C21.0126 6.37403 19.9385 5.58594 18.5229 5.00352C18.5047 4.99338 18.4884 4.98009 18.4749 4.96426C17.9657 3.25918 16.5723 2.11719 15.0008 2.11719C13.4294 2.11719 12.0366 3.25918 11.5274 4.9625C11.5138 4.97775 11.4978 4.99062 11.4799 5.00059C8.17643 6.36055 6.57096 8.96973 6.57096 12.9775C6.57096 17.3932 5.79225 18.3342 4.50202 19.8916C4.40827 20.0047 4.31276 20.1195 4.21549 20.2391C3.96424 20.5421 3.80506 20.9107 3.75677 21.3014C3.70849 21.692 3.77312 22.0883 3.94303 22.4434C4.30456 23.2051 5.07506 23.6779 5.95456 23.6779H24.0536C24.929 23.6779 25.6942 23.2057 26.0569 22.4475C26.2275 22.0923 26.2928 21.6957 26.2449 21.3046C26.197 20.9135 26.0381 20.5443 25.7868 20.2408V20.2408Z" fill="black"/>
<path d="M15.0002 28.3681C15.8471 28.3674 16.6779 28.1375 17.4047 27.7029C18.1314 27.2682 18.727 26.6449 19.1282 25.8992C19.1471 25.8634 19.1564 25.8234 19.1553 25.783C19.1541 25.7426 19.1426 25.7032 19.1217 25.6685C19.1008 25.6339 19.0713 25.6053 19.0361 25.5854C19.0009 25.5656 18.9612 25.5551 18.9207 25.5552H11.0809C11.0405 25.555 11.0006 25.5654 10.9653 25.5852C10.93 25.605 10.9005 25.6336 10.8795 25.6683C10.8586 25.7029 10.847 25.7424 10.8458 25.7829C10.8446 25.8233 10.854 25.8634 10.8729 25.8992C11.274 26.6448 11.8695 27.268 12.5962 27.7027C13.3228 28.1374 14.1535 28.3673 15.0002 28.3681Z" fill="black"/>
</svg>
