<svg width="30" height="31" viewBox="0 0 30 31" fill="none" xmlns="http://www.w3.org/2000/svg">
<path d="M19.4897 4.0269C18.3495 2.79585 16.7569 2.11792 14.9991 2.11792C13.2319 2.11792 11.634 2.79175 10.4991 4.01519C9.35181 5.2521 8.79283 6.93315 8.92408 8.74839C9.18424 12.3296 11.9094 15.2429 14.9991 15.2429C18.0887 15.2429 20.8092 12.3302 21.0735 8.74956C21.2065 6.95073 20.644 5.27319 19.4897 4.0269Z" fill="black"/>
<path d="M25.3119 28.3674H4.68686C4.4169 28.3709 4.14955 28.3142 3.90426 28.2014C3.65897 28.0886 3.44192 27.9225 3.26889 27.7153C2.88803 27.26 2.73451 26.6383 2.84819 26.0096C3.34272 23.2663 4.88608 20.9618 7.31186 19.344C9.46694 17.9079 12.1968 17.1174 14.9994 17.1174C17.8019 17.1174 20.5318 17.9084 22.6869 19.344C25.1126 20.9612 26.656 23.2657 27.1505 26.009C27.2642 26.6377 27.1107 27.2594 26.7298 27.7147C26.5569 27.9221 26.3398 28.0882 26.0945 28.2012C25.8492 28.3141 25.5819 28.3709 25.3119 28.3674V28.3674Z" fill="black"/>
</svg>
