<svg width="226" height="32" viewBox="0 0 226 32" fill="none" xmlns="http://www.w3.org/2000/svg">
<path d="M127.767 16.0112C127.767 24.3189 121.147 31.0391 113 31.0391C104.852 31.0391 98.2324 24.3189 98.2324 16.0112C98.2324 7.70358 104.852 0.983398 113 0.983398C121.147 0.983398 127.767 7.70358 127.767 16.0112Z" stroke="black"/>
<path d="M127.767 16.0112C127.767 24.3189 121.147 31.0391 113 31.0391C104.852 31.0391 98.2324 24.3189 98.2324 16.0112C98.2324 7.70358 104.852 0.983398 113 0.983398C121.147 0.983398 127.767 7.70358 127.767 16.0112Z" stroke="black"/>
<path d="M78.9113 16.0112C78.9113 24.3189 72.2919 31.0391 64.1441 31.0391C55.9964 31.0391 49.377 24.3189 49.377 16.0112C49.377 7.70358 55.9964 0.983398 64.1441 0.983398C72.2919 0.983398 78.9113 7.70358 78.9113 16.0112Z" stroke="black"/>
<path d="M176.621 16.0112C176.621 24.3189 170.002 31.0391 161.854 31.0391C153.706 31.0391 147.087 24.3189 147.087 16.0112C147.087 7.70358 153.706 0.983398 161.854 0.983398C170.002 0.983398 176.621 7.70358 176.621 16.0112Z" stroke="black"/>
<path d="M225.477 16.0112C225.477 24.3189 218.857 31.0391 210.71 31.0391C202.562 31.0391 195.942 24.3189 195.942 16.0112C195.942 7.70358 202.562 0.983398 210.71 0.983398C218.857 0.983398 225.477 7.70358 225.477 16.0112Z" stroke="black"/>
<path d="M30.0568 16.0112C30.0568 24.3189 23.4374 31.0391 15.2896 31.0391C7.1419 31.0391 0.522461 24.3189 0.522461 16.0112C0.522461 7.70358 7.1419 0.983398 15.2896 0.983398C23.4374 0.983398 30.0568 7.70358 30.0568 16.0112Z" stroke="black"/>
</svg>
