<svg width="16" height="17" viewBox="0 0 16 17" fill="none" xmlns="http://www.w3.org/2000/svg">
<path d="M8 0.6875C3.58885 0.6875 0 4.27635 0 8.6875C0 13.0987 3.58885 16.6875 8 16.6875C12.4112 16.6875 16 13.0987 16 8.6875C16 4.27635 12.4112 0.6875 8 0.6875ZM12.1635 6.00635L6.99423 12.1602C6.93753 12.2277 6.86697 12.2823 6.78734 12.3202C6.70771 12.3581 6.62087 12.3784 6.53269 12.3798H6.52231C6.43605 12.3798 6.35077 12.3616 6.27199 12.3265C6.1932 12.2914 6.12268 12.2401 6.065 12.176L3.84962 9.71442C3.79335 9.65475 3.74959 9.58443 3.72089 9.5076C3.69219 9.43077 3.67914 9.34898 3.6825 9.26703C3.68587 9.18508 3.70558 9.10464 3.74047 9.03042C3.77537 8.95619 3.82476 8.8897 3.88572 8.83484C3.94668 8.77997 4.018 8.73785 4.09548 8.71095C4.17295 8.68404 4.25502 8.67289 4.33687 8.67815C4.41872 8.68342 4.49869 8.70499 4.57208 8.7416C4.64547 8.77821 4.7108 8.82913 4.76423 8.89135L6.50615 10.8267L11.2212 5.21481C11.3269 5.09253 11.4766 5.01678 11.6377 5.00394C11.7989 4.9911 11.9586 5.04219 12.0824 5.14618C12.2062 5.25016 12.2841 5.39869 12.2993 5.55965C12.3144 5.7206 12.2656 5.88107 12.1635 6.00635Z" fill="#00DA00"/>
</svg>
